<?xml version="1.0" encoding="UTF-8" standalone="no"?>
<!-- Created with Inkscape (http://www.inkscape.org/) -->

<svg
   xmlns:dc="http://purl.org/dc/elements/1.1/"
   xmlns:cc="http://creativecommons.org/ns#"
   xmlns:rdf="http://www.w3.org/1999/02/22-rdf-syntax-ns#"
   xmlns:svg="http://www.w3.org/2000/svg"
   xmlns="http://www.w3.org/2000/svg"
   xmlns:sodipodi="http://sodipodi.sourceforge.net/DTD/sodipodi-0.dtd"
   xmlns:inkscape="http://www.inkscape.org/namespaces/inkscape"
   width="973.28345"
   height="260.60693"
   id="svg2"
   version="1.1"
   inkscape:version="0.48.0 r9654"
   sodipodi:docname="brlcad-logo-cc6666.svg">
  <defs
     id="defs4" />
  <sodipodi:namedview
     id="base"
     pagecolor="#ffffff"
     bordercolor="#666666"
     borderopacity="1.0"
     inkscape:pageopacity="0.0"
     inkscape:pageshadow="2"
     inkscape:zoom="0.35"
     inkscape:cx="-42.004534"
     inkscape:cy="31.606947"
     inkscape:document-units="px"
     inkscape:current-layer="layer1"
     showgrid="false"
     inkscape:window-width="1268"
     inkscape:window-height="666"
     inkscape:window-x="4"
     inkscape:window-y="49"
     inkscape:window-maximized="0"
     fit-margin-top="0"
     fit-margin-left="0"
     fit-margin-right="0"
     fit-margin-bottom="0" />
  <metadata
     id="metadata7">
    <rdf:RDF>
      <cc:Work
         rdf:about="">
        <dc:format>image/svg+xml</dc:format>
        <dc:type
           rdf:resource="http://purl.org/dc/dcmitype/StillImage" />
      </cc:Work>
    </rdf:RDF>
  </metadata>
  <g
     inkscape:label="Layer 1"
     inkscape:groupmode="layer"
     id="layer1"
     transform="translate(117.87781,-309.07648)">
    <path
       style="fill:#cc6666;fill-opacity:1"
       d="m 143.07143,569.15106 c -27.44495,-3.85264 -49.4031,-21.84414 -58.52484,-47.95256 -1.3432,-3.84454 -2.71251,-9.60725 -3.04292,-12.80604 -1.5732,-15.23058 -10.59028,-33.2719 -21.83403,-43.68542 -9.12224,-8.44865 -14.76257,-11.95822 -27.22797,-16.942 -19.12009,-7.64439 -35.21184,-26.32794 -41.07314,-47.68856 -2.43017,-8.85636 -2.44842,-28.02828 -0.03524,-37 8.73166,-32.46246 36.74567,-54 70.23814,-54 19.33748,0 37.43887,7.25799 50.60944,20.29251 12.27477,12.14797 18.14459,24.24171 21.93832,45.20009 4.40746,24.34888 23.06632,46.56225 46.95224,55.89664 17.8445,6.97346 34.32536,24.38774 40.3463,42.63136 4.87966,14.78553 4.92821,33.6394 0.1233,47.8806 -5.99007,17.75386 -19.1731,32.8726 -36.13096,41.43621 -11.13549,5.62334 -29.47934,8.54232 -42.33864,6.73717 z m 23.01032,-28.1561 c 11.1257,-3.65238 20.01047,-10.65475 26.43801,-20.83663 2.94552,-4.66601 6.55167,-16.91967 6.55167,-22.26253 0,-11.00343 -5.38733,-23.9445 -13.32616,-32.01119 -6.99279,-7.10542 -12.89946,-10.45364 -22.94182,-13.00468 -7.4521,-1.89303 -8.94259,-1.97431 -15.73202,-0.85785 -9.87888,1.6245 -18.42282,5.79454 -25.1574,12.27858 -18.84522,18.14414 -19.68573,44.78199 -2.01732,63.93347 6.32247,6.85317 10.01532,9.27297 18.98073,12.43744 8.69021,3.06732 18.49099,3.18382 27.20431,0.32339 z M 73.52574,425.54674 c 5.53165,-1.60809 15.40797,-7.09951 19.40708,-10.79069 4.15154,-3.83187 9.95918,-13.21002 12.08084,-19.50809 1.38395,-4.10819 2.05423,-8.65647 2.04695,-13.88994 -0.0184,-13.22455 -3.83963,-22.32169 -13.37711,-31.8466 -18.45568,-18.43139 -45.77642,-18.43968 -64.19661,-0.0195 -8.76331,8.7633 -12.56704,17.15445 -13.19197,29.10188 -0.89112,17.03643 6.00597,31.13127 19.826,40.51627 10.95449,7.43905 25.40367,9.92548 37.40482,6.43665 z M -62.517207,558.07176 c -32.996248,-8.53383 -55.291133,-37.3266 -55.360393,-71.49528 -0.0327,-16.14868 3.67539,-28.09653 13.03505,-42 9.769461,-14.51221 25.865184,-25.82984 41.91398,-29.47161 13.824923,-3.13712 30.640424,-14.26225 39.09079,-25.86245 2.42507,-3.32899 4.74671,-6.07819 5.15921,-6.10933 0.4125,-0.0311 0.76603,3.43089 0.78562,7.69339 0.0628,13.66652 4.14114,26.4668 12.3462,38.75 9.80844,14.68349 20.64403,23.00361 39.61818,30.42084 3.025,1.18252 7.68845,3.75043 10.36323,5.70648 l 4.86322,3.55645 -3.49303,3.65811 c -8.59072,8.99675 -15.84807,21.64934 -18.73222,32.65812 -6.90233,26.34612 -28.38001,46.71629 -56.265551,53.36418 -7.278319,1.73515 -25.047049,1.27184 -33.324286,-0.8689 z m 26.088637,-27.9844 c 20.58306,-3.35344 36.5,-22.32336 36.5,-43.50095 0,-24.1033 -20.15082,-44.52448 -43.915156,-44.50435 -8.027357,0.007 -12.747362,1.16583 -20.584844,5.05476 -7.007728,3.47722 -10.008346,5.96818 -14.884682,12.35653 -6.639473,8.69818 -8.978954,15.75474 -8.978954,27.08313 0,13.16138 3.539107,21.70334 12.849701,31.01393 11.019707,11.01971 23.514734,15.02212 39.013935,12.49695 z m 637,-15.6084 c -15.07879,-2.20171 -29.02859,-10.7593 -36.48799,-22.38376 -1.75982,-2.74245 -4.36184,-8.25608 -5.78225,-12.2525 -2.32394,-6.53855 -2.58257,-8.7183 -2.58257,-21.76622 0,-13.04792 0.25863,-15.22767 2.58257,-21.76622 3.26401,-9.18351 7.4149,-15.66324 14.04864,-21.93058 9.64369,-9.11105 19.25047,-13.45065 34.04051,-15.37685 7.66731,-0.99856 10.74745,-0.94263 18.68109,0.33919 12.47213,2.0151 15,3.04101 15,6.08759 0,2.25299 -2.59651,9.64687 -3.38769,9.64687 -0.19847,0 -2.32993,-0.75574 -4.73658,-1.67943 -3.24757,-1.24643 -7.72742,-1.69551 -17.37573,-1.74182 -12.79445,-0.0614 -13.10971,-0.009 -19.93881,3.32062 -13.27703,6.47321 -20.39497,16.54901 -23.31038,32.99702 -4.41202,24.89146 7.06552,46.13271 28.64841,53.01904 7.36907,2.3512 28.07589,1.00904 36.18103,-2.34516 1.25427,-0.51907 1.85609,0.4959 2.91751,4.92037 0.86494,3.6055 0.99428,5.91732 0.36619,6.54541 -2.95108,2.95108 -28.72513,5.84684 -38.86395,4.36643 z m 51.85589,-1.91742 c -0.69893,-1.82139 -1.51779,0.86513 9.59678,-31.48506 5.00754,-14.575 11.56226,-33.7 14.56605,-42.5 3.00379,-8.8 7.16218,-20.95 9.24087,-27 l 3.77944,-11 8.91375,0 8.91375,0 7.33029,21.5 c 4.03166,11.825 9.7814,28.7 12.77721,37.5 2.99581,8.8 8.19187,24.04219 11.5468,33.87153 3.35493,9.82934 5.86184,18.49184 5.57091,19.25 -0.37435,0.97554 -2.42781,1.37847 -7.02517,1.37847 -5.24556,0 -6.6827,-0.34848 -7.46493,-1.81009 -0.90775,-1.69613 -5.35383,-14.02876 -8.7208,-24.18991 -0.82011,-2.475 -1.97089,-5.7375 -2.55729,-7.25 l -1.06619,-2.75 -19.75736,0 -19.75736,0 -1.07984,2.75 c -0.59391,1.5125 -3.15773,9.04512 -5.69737,16.73916 -2.53963,7.69404 -5.0884,14.55654 -5.66392,15.25 -1.57326,1.89567 -12.70138,1.68536 -13.44562,-0.2541 z m 61.35369,-49.23506 c -0.28457,-1.5125 -3.46143,-11.525 -7.05968,-22.25 -3.59825,-10.725 -6.80809,-20.76947 -7.13297,-22.32104 -0.64977,-3.10318 -2.85119,-3.16744 -3.29222,-0.0961 -0.45462,3.16601 -2.23426,9.02923 -8.37634,27.59683 -3.2166,9.72383 -5.84837,18.16133 -5.84837,18.75 0,0.71612 5.33222,1.0703 16.1135,1.0703 l 16.1135,0 -0.51742,-2.75 z m 50.54042,49.71884 -2.25,-0.90439 0,-54.55698 0,-54.55697 2.75,-1.16583 c 3.98294,-1.68852 40.28218,-2.30036 47.25,-0.79642 16.54199,3.57043 27.1686,10.1042 34.98696,21.51175 11.7314,17.11694 10.99719,48.70613 -1.57173,67.62362 -5.12398,7.7121 -10.69017,12.57178 -19.02261,16.60807 -5.69158,2.75704 -9.06961,3.82753 -19.58544,6.20661 -5.66106,1.28075 -39.38661,1.30495 -42.55718,0.0305 z m 45.61412,-13.00237 c 8.59139,-2.8204 12.91638,-5.40372 18.0382,-10.77418 12.41188,-13.01443 15.85438,-39.01679 7.51503,-56.76349 -3.80774,-8.10311 -13.88842,-16.02167 -24.91735,-19.57302 -4.27429,-1.37634 -28.69385,-1.85638 -31.75,-0.62415 -1.62935,0.65695 -1.75,3.72986 -1.75,44.57032 0,24.12559 0.3,44.16472 0.66667,44.53138 0.36666,0.36667 6.36734,0.66667 13.33484,0.66667 10.04037,0 13.95312,-0.42182 18.86261,-2.03353 z m -530.63808,12.13334 -4.27395,-0.59981 0.006,-54.42281 0.006,-54.42281 2.7677,-0.3121 c 1.52224,-0.17166 10.99982,-0.6042 21.0613,-0.96119 21.44522,-0.76091 30.05519,0.33347 39.45469,5.01494 12.67059,6.31066 17.1211,19.98835 10.6587,32.75724 -2.22473,4.39578 -8.20312,9.53322 -12.08619,10.38609 -4.25689,0.93497 -3.68999,3.88365 1.01784,5.29415 6.1612,1.84594 11.847,6.61262 14.77134,12.38353 2.18314,4.30821 2.65318,6.59054 2.65318,12.88275 0,22.95624 -17.64587,33.13676 -56.76316,32.74865 -8.25,-0.0819 -16.92328,-0.41874 -19.27396,-0.74863 z m 42.32459,-18.14832 c 6.71139,-3.32619 9.44937,-7.63524 9.44937,-14.87153 0,-4.81178 -0.44699,-6.16655 -3.09418,-9.37805 -4.54433,-5.51305 -8.68345,-6.95041 -20.40582,-7.08613 l -10,-0.11578 -0.27561,16.42515 c -0.20883,12.44551 0.0335,16.6368 1,17.29864 0.70159,0.48042 5.12404,0.71727 9.82768,0.52633 6.57546,-0.26691 9.69534,-0.91375 13.49856,-2.79863 z m -0.55063,-50.60055 c 10.75454,-6.16771 10.47648,-19.59854 -0.50633,-24.45676 -3.59706,-1.59116 -6.23486,-1.91445 -13.72333,-1.68198 l -9.27034,0.2878 -0.28135,12.94711 c -0.15474,7.12092 -0.0364,13.58552 0.26305,14.36579 0.87567,2.28198 18.94906,1.15849 23.5183,-1.46196 z m 55.24146,13.98631 0.25854,-54.66275 3,-0.31881 c 11.98699,-1.27389 39.52881,-1.49214 45.84539,-0.3633 17.24092,3.08112 26.05105,10.50353 28.49618,24.00761 2.32256,12.82716 -4.05032,25.85901 -15.01036,30.69457 -4.73364,2.08847 -4.82356,3.52238 -0.38513,6.14112 6.18831,3.65119 8.8829,9.28151 13.99604,29.24456 1.91307,7.46914 3.94621,14.81094 4.51809,16.3151 0.57189,1.50417 1.03979,2.93055 1.03979,3.16975 0,0.23919 -5.36807,0.4349 -11.92904,0.4349 l -11.92904,0 -1.66954,-5.743 c -0.91824,-3.15865 -2.80205,-10.24615 -4.18623,-15.75 -2.78792,-11.08547 -4.9235,-15.93472 -8.43883,-19.16194 -3.15976,-2.90078 -9.27566,-4.56208 -15.34732,-4.16887 l -5,0.32381 -0.26913,22.25 -0.26913,22.25 -11.48941,0 -11.48941,0 0.25854,-54.66275 z m 45.75854,-8.68892 c 6.36468,-3.24645 9,-7.53567 9,-14.64833 0,-6.9335 -2.60219,-11.34642 -8.47968,-14.38024 -4.28396,-2.21129 -14.13507,-3.28982 -19.99961,-2.18962 l -3.52071,0.66049 0,16.45468 0,16.45469 9.25,-0.0282 c 7.63682,-0.0233 10.03479,-0.42847 13.75,-2.3235 z m 53.98684,62.86497 c -0.007,-0.28231 -0.0191,-25.10497 -0.0263,-55.16145 l -0.0132,-54.64815 11.27631,-1.5e-4 11.27632,-1.5e-4 0.26009,45.6483 0.26009,45.6483 22.23991,-3.2e-4 22.23991,-3.3e-4 -0.12842,9.25033 -0.12843,9.25032 -33.62157,0.2633 c -18.49187,0.14482 -33.6275,0.0323 -33.63474,-0.25 z"
       id="path3351"
       inkscape:connector-curvature="0" />
  </g>
</svg>
