#define test_width 16
#define test_height 16
#define test_x_hot 7
#define test_y_hot 7
static unsigned char test_bits[] = {
   0x00, 0x00, 0x60, 0x06, 0x60, 0x06, 0x60, 0x06, 0x60, 0x06, 0x64, 0x26,
   0x66, 0x66, 0x7f, 0xfe, 0x66, 0x66, 0x64, 0x26, 0x60, 0x06, 0x60, 0x06,
   0x60, 0x06, 0x60, 0x06, 0x60, 0x06, 0x00, 0x00};
