0
SECTION
2
ENTITIES
0
POLYLINE
8
mesh
70
64
0
VERTEX
8
mesh
70
64
10
0
20
0
30
0
0
VERTEX
8
mesh
70
64
10
10
20
0
30
0
0
VERTEX
8
mesh
70
64
10
0
20
10
30
0
0
VERTEX
8
mesh
70
64
10
10
20
10
30
0
999
Valid quad with hidden first edge
0
VERTEX
8
mesh
70
128
71
-1
72
2
73
3
74
4
999
Invalid zero index
0
VERTEX
8
mesh
70
128
71
0
72
2
73
3
999
Invalid index beyond vertex count
0
VERTEX
8
mesh
70
128
71
1
72
2
73
99
999
Invalid fourth corner skips the whole quad
0
VERTEX
8
mesh
70
128
71
1
72
2
73
3
74
99
999
Unrepresentable absolute index
0
VERTEX
8
mesh
70
128
71
-2147483648
72
2
73
3
999
Out-of-range integer
0
VERTEX
8
mesh
70
128
71
999999999999999999999999999
72
2
73
3
999
Non-numeric index
0
VERTEX
8
mesh
70
128
71
oops
72
2
73
3
999
Numeric value with trailing garbage
0
VERTEX
8
mesh
70
128
71
1junk
72
2
73
3
999
Valid triangle after malformed faces
0
VERTEX
8
mesh
70
128
71
1
72
3
73
4
0
SEQEND
0
ENDSEC
0
EOF
