#define fc_left1_width 16
#define fc_left1_height 16
#define fc_left1_x_hot 8
#define fc_left1_y_hot 8
static char fc_left1_bits[] = {
   0x00, 0x00, 0x00, 0x00, 0x00, 0x03, 0xc0, 0x02, 0xe0, 0x14, 0x10, 0x1f,
   0xd8, 0x14, 0xd8, 0x14, 0x08, 0x10, 0x08, 0x14, 0xd0, 0x14, 0x70, 0x1e,
   0x60, 0x13, 0x80, 0x01, 0x00, 0x01, 0x00, 0x00};
