#define fc_leftm_width 16
#define fc_leftm_height 16
#define fc_leftm_x_hot 8
#define fc_leftm_y_hot 8
static char fc_leftm_bits[] = {
   0x00, 0x00, 0x00, 0x00, 0x00, 0x0f, 0xc0, 0x07, 0xf0, 0x83, 0xfc, 0xe3,
   0xfe, 0xff, 0xff, 0xff, 0xff, 0xff, 0xff, 0xff, 0xfe, 0xff, 0xfc, 0xe3,
   0xf0, 0x83, 0x80, 0x03, 0x00, 0x07, 0x00, 0x00};
