#define fc_left_width 16
#define fc_left_height 16
#define fc_left_x_hot 8
#define fc_left_y_hot 8
static char fc_left_bits[] = {
   0x00, 0x00, 0x00, 0x00, 0x00, 0x0f, 0xc0, 0x04, 0x70, 0x82, 0x8c, 0xe2,
   0x22, 0x9c, 0x2d, 0x90, 0x2d, 0x80, 0x21, 0x90, 0x22, 0x9c, 0x1c, 0xe3,
   0x70, 0x82, 0x80, 0x02, 0x00, 0x07, 0x00, 0x00};
