#define fc_left1m_width 16
#define fc_left1m_height 16
#define fc_left1m_x_hot 8
#define fc_left1m_y_hot 8
static char fc_left1m_bits[] = {
   0x00, 0x00, 0x00, 0x00, 0x00, 0x03, 0xc0, 0x03, 0xe0, 0x17, 0xf0, 0x1f,
   0xf8, 0x1f, 0xf8, 0x1f, 0xf8, 0x1f, 0xf8, 0x1f, 0xf0, 0x1f, 0xf0, 0x1f,
   0xe0, 0x13, 0x80, 0x01, 0x00, 0x01, 0x00, 0x00};
