#define fc_midm_width 16
#define fc_midm_height 16
#define fc_midm_x_hot 8
#define fc_midm_y_hot 8
static char fc_midm_bits[] = {
   0x00, 0x00, 0x00, 0x00, 0x80, 0x03, 0x80, 0x03, 0xc0, 0x07, 0xe0, 0x0f,
   0xe0, 0x0f, 0xe0, 0x0f, 0xe0, 0x0f, 0xe0, 0x0f, 0xe0, 0x0f, 0xe0, 0x0f,
   0xc0, 0x07, 0x80, 0x03, 0x80, 0x03, 0x00, 0x00};
