#define fc_right1m_width 16
#define fc_right1m_height 16
#define fc_right1m_x_hot 8
#define fc_right1m_y_hot 8
static char fc_right1m_bits[] = {
   0x00, 0x00, 0x00, 0x00, 0xc0, 0x00, 0xc0, 0x03, 0xe8, 0x07, 0xf8, 0x0f,
   0xf8, 0x1f, 0xf8, 0x1f, 0xf8, 0x1f, 0xf8, 0x1f, 0xf8, 0x0f, 0xf8, 0x0f,
   0xc8, 0x07, 0x80, 0x01, 0x80, 0x00, 0x00, 0x00};
