#define fc_right_width 16
#define fc_right_height 16
#define fc_right_x_hot 8
#define fc_right_y_hot 8
static char fc_right_bits[] = {
   0x00, 0x00, 0x00, 0x00, 0xf0, 0x00, 0x20, 0x03, 0x41, 0x0e, 0x47, 0x30,
   0x39, 0x44, 0x09, 0xb4, 0x01, 0xb4, 0x09, 0x84, 0x39, 0x44, 0xc7, 0x38,
   0x41, 0x0e, 0x40, 0x01, 0xe0, 0x00, 0x00, 0x00};
