#define fc_right1_width 16
#define fc_right1_height 16
#define fc_right1_x_hot 8
#define fc_right1_y_hot 8
static char fc_right1_bits[] = {
   0x00, 0x00, 0x00, 0x00, 0xc0, 0x00, 0x40, 0x03, 0x28, 0x07, 0xf8, 0x08,
   0x28, 0x1b, 0x28, 0x1b, 0x08, 0x10, 0x28, 0x10, 0x28, 0x0b, 0x38, 0x0e,
   0xc8, 0x06, 0x80, 0x01, 0x80, 0x00, 0x00, 0x00};
