solid arb4.bot_01
  facet normal 0.000000 0.000000 -1.000000
    outer loop
      vertex 1000.000000 -1000.000000 -1000.000000
      vertex -1000.000000 1000.000000 -1000.000000
      vertex 1000.000000 1000.000000 -1000.000000
    endloop
  endfacet
  facet normal -0.577350 -0.577350 0.577350
    outer loop
      vertex 1000.000000 -1000.000000 -1000.000000
      vertex 1000.000000 1000.000000 1000.000000
      vertex -1000.000000 1000.000000 -1000.000000
    endloop
  endfacet
  facet normal 0.000000 1.000000 -0.000000
    outer loop
      vertex 1000.000000 1000.000000 -1000.000000
      vertex -1000.000000 1000.000000 -1000.000000
      vertex 1000.000000 1000.000000 1000.000000
    endloop
  endfacet
  facet normal 1.000000 0.000000 0.000000
    outer loop
      vertex 1000.000000 -1000.000000 -1000.000000
      vertex 1000.000000 1000.000000 -1000.000000
      vertex 1000.000000 1000.000000 1000.000000
    endloop
  endfacet
endsolid arb4.bot_01
