#define hand6-02m_width 16
#define hand6-02m_height 16
#define hand6-02m_x_hot 10
#define hand6-02m_y_hot 11
static unsigned char hand6-02m_bits[] = {
   0x00, 0x00, 0x00, 0x00, 0x00, 0x0e, 0x80, 0x3f, 0x80, 0x3f, 0x80, 0x7f,
   0x80, 0xff, 0xbc, 0xff, 0xbc, 0xff, 0xbc, 0xff, 0xbc, 0xff, 0x80, 0xff,
   0xf8, 0xff, 0xf8, 0xff, 0xf8, 0xff, 0x80, 0x7f};
