#define hand6-10m_width 16
#define hand6-10m_height 16
#define hand6-10m_x_hot 10
#define hand6-10m_y_hot 11
static unsigned char hand6-10m_bits[] = {
   0x00, 0x00, 0x00, 0x00, 0x00, 0x0e, 0x80, 0x3f, 0x8f, 0x3f, 0x8f, 0x7f,
   0x8f, 0xff, 0x8f, 0xff, 0xe0, 0xff, 0xe0, 0xff, 0xe0, 0xff, 0xe0, 0xff,
   0xe0, 0xff, 0xe0, 0xff, 0xc0, 0xff, 0x80, 0x7f};
