#define hand6-1m_width 16
#define hand6-1m_height 16
#define hand6-1m_x_hot 8
#define hand6-1m_y_hot 9
static unsigned char hand6-1m_bits[] = {
   0x00, 0x00, 0x80, 0x03, 0xe0, 0x0f, 0xe0, 0x1f, 0xe0, 0x3f, 0xe0, 0x3f,
   0xe0, 0x3f, 0xf8, 0x3f, 0xf8, 0x3f, 0xf8, 0x3f, 0xf8, 0x3f, 0xf8, 0x3f,
   0xf8, 0x3f, 0xf0, 0x3f, 0xe0, 0x1f, 0xe0, 0x1f};
