#define hand6-12_width 16
#define hand6-12_height 16
#define hand6-12_x_hot 10
#define hand6-12_y_hot 11
static unsigned char hand6-12_bits[] = {
   0x00, 0x00, 0x00, 0x00, 0x00, 0x0e, 0x80, 0x3b, 0x80, 0x2a, 0x80, 0x6a,
   0x80, 0xaa, 0x80, 0xaa, 0xef, 0xaa, 0xa9, 0xa0, 0xa9, 0x80, 0xaf, 0x80,
   0x20, 0x80, 0x60, 0x80, 0xc0, 0xc0, 0x80, 0x7f};
