#define hand6-1_width 16
#define hand6-1_height 16
#define hand6-1_x_hot 8
#define hand6-1_y_hot 10
static unsigned char hand6-1_bits[] = {
   0x00, 0x00, 0x80, 0x03, 0xe0, 0x0e, 0xa0, 0x1a, 0xa0, 0x2a, 0xa0, 0x2a,
   0xa0, 0x2a, 0xb8, 0x2a, 0x28, 0x28, 0x28, 0x20, 0x28, 0x20, 0x08, 0x20,
   0x08, 0x20, 0x10, 0x20, 0x20, 0x10, 0xe0, 0x1f};
