#define hand6-11_width 16
#define hand6-11_height 16
#define hand6-11_x_hot 10
#define hand6-11_y_hot 11
static unsigned char hand6-11_bits[] = {
   0x00, 0x00, 0x00, 0x00, 0x00, 0x0e, 0x80, 0x3b, 0x80, 0x2a, 0x80, 0x6a,
   0x8f, 0xaa, 0x89, 0xaa, 0xe9, 0xaa, 0xaf, 0xa0, 0xa0, 0x80, 0xa0, 0x80,
   0x20, 0x80, 0x60, 0x80, 0xc0, 0xc0, 0x80, 0x7f};
