#define hand6-07_width 16
#define hand6-07_height 16
#define hand6-07_x_hot 10
#define hand6-07_y_hot 11
static unsigned char hand6-07_bits[] = {
   0x1e, 0x00, 0x12, 0x00, 0x12, 0x0e, 0x9e, 0x3b, 0x80, 0x2a, 0x80, 0x6a,
   0x80, 0xaa, 0x80, 0xaa, 0xe0, 0xaa, 0xa0, 0xa0, 0xa0, 0x80, 0xa0, 0x80,
   0x20, 0x80, 0x60, 0x80, 0xc0, 0xc0, 0x80, 0x7f};
