#define hand6-13_width 16
#define hand6-13_height 16
#define hand6-13_x_hot 10
#define hand6-13_y_hot 11
static unsigned char hand6-13_bits[] = {
   0x00, 0x00, 0x00, 0x00, 0x00, 0x0e, 0x80, 0x3b, 0x80, 0x2a, 0x80, 0x6a,
   0x80, 0xaa, 0x80, 0xaa, 0xe0, 0xaa, 0xa0, 0xa0, 0xaf, 0x80, 0xa9, 0x80,
   0x29, 0x80, 0x6f, 0x80, 0xc0, 0xc0, 0x80, 0x7f};
