#define hand6-04_width 16
#define hand6-04_height 16
#define hand6-04_x_hot 10
#define hand6-04_y_hot 11
static unsigned char hand6-04_bits[] = {
   0x00, 0x00, 0x00, 0x00, 0x00, 0x0e, 0x80, 0x3b, 0x80, 0x2a, 0xbc, 0x6a,
   0xa4, 0xaa, 0xa4, 0xaa, 0xbc, 0xaa, 0x80, 0xa0, 0xb8, 0x80, 0xc8, 0x80,
   0x98, 0x80, 0x30, 0x80, 0xe0, 0xc0, 0x80, 0x7f};
