#define hand6-10_width 16
#define hand6-10_height 16
#define hand6-10_x_hot 10
#define hand6-10_y_hot 11
static unsigned char hand6-10_bits[] = {
   0x00, 0x00, 0x00, 0x00, 0x00, 0x0e, 0x80, 0x3b, 0x8f, 0x2a, 0x89, 0x6a,
   0x89, 0xaa, 0x8f, 0xaa, 0xe0, 0xaa, 0xa0, 0xa0, 0xa0, 0x80, 0xa0, 0x80,
   0x20, 0x80, 0x60, 0x80, 0xc0, 0xc0, 0x80, 0x7f};
