#define hand6-05_width 16
#define hand6-05_height 16
#define hand6-05_x_hot 10
#define hand6-05_y_hot 11
static unsigned char hand6-05_bits[] = {
   0x00, 0x00, 0x00, 0x00, 0x00, 0x0e, 0xbc, 0x3b, 0xa4, 0x2a, 0xa4, 0x6a,
   0xbc, 0xaa, 0x80, 0xaa, 0x80, 0xaa, 0x80, 0xa0, 0xb8, 0x80, 0xc8, 0x80,
   0x98, 0x80, 0x30, 0x80, 0xe0, 0xc0, 0x80, 0x7f};
