#define hand6-06_width 16
#define hand6-06_height 16
#define hand6-06_x_hot 10
#define hand6-06_y_hot 11
static unsigned char hand6-06_bits[] = {
   0x00, 0x00, 0x3c, 0x00, 0x24, 0x0e, 0xa4, 0x3b, 0xbc, 0x2a, 0x80, 0x6a,
   0x80, 0xaa, 0x80, 0xaa, 0x80, 0xaa, 0x80, 0xa0, 0xb8, 0x80, 0xc8, 0x80,
   0x98, 0x80, 0x30, 0x80, 0xe0, 0xc0, 0x80, 0x7f};
