#define hand6-06m_width 16
#define hand6-06m_height 16
#define hand6-06m_x_hot 10
#define hand6-06m_y_hot 11
static unsigned char hand6-06m_bits[] = {
   0x00, 0x00, 0x3c, 0x00, 0x3c, 0x0e, 0xbc, 0x3f, 0xbc, 0x3f, 0x80, 0x7f,
   0x80, 0xff, 0x80, 0xff, 0x80, 0xff, 0x80, 0xff, 0xb8, 0xff, 0xf8, 0xff,
   0xf8, 0xff, 0xf0, 0xff, 0xe0, 0xff, 0x80, 0x7f};
