#define hand6-02_width 16
#define hand6-02_height 16
#define hand6-02_x_hot 10
#define hand6-02_y_hot 11
static unsigned char hand6-02_bits[] = {
   0x00, 0x00, 0x00, 0x00, 0x00, 0x0e, 0x80, 0x3b, 0x80, 0x2a, 0x80, 0x6a,
   0x80, 0xaa, 0xbc, 0xaa, 0xa4, 0xaa, 0xa4, 0xa0, 0xbc, 0x80, 0x80, 0x80,
   0xf8, 0x80, 0x08, 0x80, 0xf8, 0xc0, 0x80, 0x7f};
