solid arb4.bot
  facet normal 0.000000 0.000000 -1.000000
    outer loop
      vertex 100.000000 -100.000000 -100.000000
      vertex -100.000000 100.000000 -100.000000
      vertex 100.000000 100.000000 -100.000000
    endloop
  endfacet
  facet normal -0.577350 -0.577350 0.577350
    outer loop
      vertex 100.000000 -100.000000 -100.000000
      vertex 100.000000 100.000000 100.000000
      vertex -100.000000 100.000000 -100.000000
    endloop
  endfacet
  facet normal 0.000000 1.000000 -0.000000
    outer loop
      vertex 100.000000 100.000000 -100.000000
      vertex -100.000000 100.000000 -100.000000
      vertex 100.000000 100.000000 100.000000
    endloop
  endfacet
  facet normal 1.000000 0.000000 0.000000
    outer loop
      vertex 100.000000 -100.000000 -100.000000
      vertex 100.000000 100.000000 -100.000000
      vertex 100.000000 100.000000 100.000000
    endloop
  endfacet
endsolid arb4.bot
