400 0 1 0
24 BRL-CAD(7.40.2)-bot_dump 16 ACIS 8.0 Unknown 24 Tue Feb 25 07:58:56 2025
1 9.9999999999999995e-007 1e-010
-0 body $-1 $1 $-1 $-1 #
-1 lump $-1 $-1 $2 $0 #
-2 shell $-1 $-1 $-1 $35 $-1 $1 #
-3 vertex $-1 $24 $7 #
-4 vertex $-1 $23 $8 #
-5 vertex $-1 $25 $9 #
-6 vertex $-1 $27 $10 #
-7 point $-1 -1000.000000 1000.000000 -1000.000000 #
-8 point $-1 1000.000000 -1000.000000 -1000.000000 #
-9 point $-1 1000.000000 1000.000000 -1000.000000 #
-10 point $-1 1000.000000 1000.000000 1000.000000 #
-11 coedge $-1 $12 $13 $11 $23 forward $39 $-1 #
-12 coedge $-1 $13 $11 $12 $24 forward $39 $-1 #
-13 coedge $-1 $11 $12 $13 $25 forward $39 $-1 #
-14 coedge $-1 $15 $16 $14 $26 forward $40 $-1 #
-15 coedge $-1 $16 $14 $15 $27 forward $40 $-1 #
-16 coedge $-1 $14 $15 $16 $28 forward $40 $-1 #
-17 coedge $-1 $18 $19 $17 $29 forward $41 $-1 #
-18 coedge $-1 $19 $17 $18 $30 forward $41 $-1 #
-19 coedge $-1 $17 $18 $19 $31 forward $41 $-1 #
-20 coedge $-1 $21 $22 $20 $32 forward $42 $-1 #
-21 coedge $-1 $22 $20 $21 $33 forward $42 $-1 #
-22 coedge $-1 $20 $21 $22 $34 forward $42 $-1 #
-23 edge $-1 $4 $3 $11 $43 forward #
-24 edge $-1 $3 $5 $12 $44 forward #
-25 edge $-1 $5 $4 $13 $45 forward #
-26 edge $-1 $4 $6 $14 $46 forward #
-27 edge $-1 $6 $3 $15 $47 forward #
-28 edge $-1 $3 $4 $16 $48 forward #
-29 edge $-1 $5 $3 $17 $49 forward #
-30 edge $-1 $3 $6 $18 $50 forward #
-31 edge $-1 $6 $5 $19 $51 forward #
-32 edge $-1 $4 $5 $20 $52 forward #
-33 edge $-1 $5 $6 $21 $53 forward #
-34 edge $-1 $6 $4 $22 $54 forward #
-35 face $-1 $36 $39 $2 $-1 $55 forward single #
-36 face $-1 $37 $40 $2 $-1 $56 forward single #
-37 face $-1 $38 $41 $2 $-1 $57 forward single #
-38 face $-1 $-1 $42 $2 $-1 $58 forward single #
-39 loop $-1 $-1 $11 $35 #
-40 loop $-1 $-1 $14 $36 #
-41 loop $-1 $-1 $17 $37 #
-42 loop $-1 $-1 $20 $38 #
-43 straight-curve $-1 1000.000000 -1000.000000 -1000.000000 -0.707107 0.707107 0.000000 I I #
-44 straight-curve $-1 -1000.000000 1000.000000 -1000.000000 1.000000 0.000000 0.000000 I I #
-45 straight-curve $-1 1000.000000 1000.000000 -1000.000000 0.000000 -1.000000 0.000000 I I #
-46 straight-curve $-1 1000.000000 -1000.000000 -1000.000000 0.000000 0.707107 0.707107 I I #
-47 straight-curve $-1 1000.000000 1000.000000 1000.000000 -0.707107 0.000000 -0.707107 I I #
-48 straight-curve $-1 -1000.000000 1000.000000 -1000.000000 0.707107 -0.707107 0.000000 I I #
-49 straight-curve $-1 1000.000000 1000.000000 -1000.000000 -1.000000 0.000000 0.000000 I I #
-50 straight-curve $-1 -1000.000000 1000.000000 -1000.000000 0.707107 0.000000 0.707107 I I #
-51 straight-curve $-1 1000.000000 1000.000000 1000.000000 0.000000 0.000000 -1.000000 I I #
-52 straight-curve $-1 1000.000000 -1000.000000 -1000.000000 0.000000 1.000000 0.000000 I I #
-53 straight-curve $-1 1000.000000 1000.000000 -1000.000000 0.000000 0.000000 1.000000 I I #
-54 straight-curve $-1 1000.000000 1000.000000 1000.000000 0.000000 -0.707107 -0.707107 I I #
-55 plane-surface $-1 1000.000000 -1000.000000 -1000.000000 0.000000 0.000000 -1.000000 -0.707107 0.707107 0.000000 forward_v I I I I #
-56 plane-surface $-1 1000.000000 -1000.000000 -1000.000000 -0.577350 -0.577350 0.577350 0.000000 0.707107 0.707107 forward_v I I I I #
-57 plane-surface $-1 1000.000000 1000.000000 -1000.000000 0.000000 1.000000 -0.000000 -1.000000 0.000000 0.000000 forward_v I I I I #
-58 plane-surface $-1 1000.000000 -1000.000000 -1000.000000 1.000000 0.000000 0.000000 0.000000 1.000000 0.000000 forward_v I I I I #
End-of-ACIS-data
