#define m_width 16
#define m_height 16
static char m_bits[] = {
   0xff, 0xff, 0x01, 0x80, 0x01, 0x80, 0x19, 0x98, 0x19, 0x98, 0x39, 0x9c,
   0x79, 0x9e, 0xf9, 0x9f, 0xd9, 0x9b, 0x99, 0x99, 0x19, 0x98, 0x19, 0x98,
   0x19, 0x98, 0x01, 0x80, 0x01, 0x80, 0xff, 0xff};
