#define menu16_mask_width 16
#define menu16_mask_height 16
static char menu16_mask_bits[] = {
   0xfe, 0x3f, 0xfe, 0x3f, 0xfe, 0x7f, 0xfe, 0x7f, 0xfe, 0x7f, 0xfe, 0x7f,
   0xfe, 0x7f, 0xfe, 0x7f, 0xfe, 0x7f, 0xfe, 0x7f, 0xfe, 0x7f, 0xfe, 0x7f,
   0xfe, 0x7f, 0xfe, 0x7f, 0xfe, 0x7f, 0xfc, 0x7f};
