#define menu12_width 12
#define menu12_height 12
static char menu12_bits[] = {
   0x00, 0x00, 0xfe, 0x03, 0x02, 0x06, 0x72, 0x06, 0x02, 0x06, 0x72, 0x06,
   0x02, 0x06, 0x72, 0x06, 0x02, 0x06, 0xfe, 0x07, 0xf8, 0x07, 0x00, 0x00};
