#define mHit_width 16
#define mHit_height 16
static char mHit_bits[] = {
   0xff, 0xff, 0xff, 0xff, 0x03, 0xc0, 0x1b, 0xd8, 0x1b, 0xd8, 0x3b, 0xdc,
   0x7b, 0xde, 0xfb, 0xdf, 0xdb, 0xdb, 0x9b, 0xd9, 0x1b, 0xd8, 0x1b, 0xd8,
   0x1b, 0xd8, 0x03, 0xc0, 0xff, 0xff, 0xff, 0xff};
