#define pinin2Hit_width 15
#define pinin2Hit_height 15
#define pinin2Hit_x_hot 7
#define pinin2Hit_y_hot 7
static char pinin2Hit_bits[] = {
   0xe0, 0x03, 0xf8, 0x0f, 0xfc, 0x1f, 0x1e, 0x3c, 0x0e, 0x38, 0xc7, 0x71,
   0xe7, 0x73, 0xe7, 0x73, 0xe7, 0x73, 0xc7, 0x71, 0x0e, 0x38, 0x1e, 0x3c,
   0xfc, 0x1f, 0xf8, 0x0f, 0xe0, 0x03};
