#define pinin2_width 15
#define pinin2_height 15
#define pinin2_x_hot 7
#define pinin2_y_hot 7
static char pinin2_bits[] = {
   0xe0, 0x03, 0x18, 0x0c, 0x04, 0x10, 0x02, 0x20, 0x02, 0x20, 0xc1, 0x41,
   0xe1, 0x43, 0xe1, 0x43, 0xe1, 0x43, 0xc1, 0x41, 0x02, 0x20, 0x02, 0x20,
   0x04, 0x10, 0x18, 0x0c, 0xe0, 0x03};
