#define pinout2_width 15
#define pinout2_height 15
#define pinout2_x_hot 7
#define pinout2_y_hot 7
static char pinout2_bits[] = {
   0xe0, 0x03, 0x18, 0x0c, 0x04, 0x10, 0x02, 0x20, 0x02, 0x20, 0x01, 0x42,
   0x01, 0x46, 0xe1, 0x47, 0x01, 0x46, 0x01, 0x42, 0x02, 0x20, 0x02, 0x20,
   0x04, 0x10, 0x18, 0x0c, 0xe0, 0x03};
