#define v_width 16
#define v_height 16
static char v_bits[] = {
   0xff, 0xff, 0x01, 0x80, 0x01, 0x80, 0x19, 0x98, 0x19, 0x98, 0x39, 0x9c,
   0x31, 0x8c, 0x31, 0x8c, 0x61, 0x86, 0x61, 0x86, 0xc1, 0x83, 0xc1, 0x83,
   0x81, 0x81, 0x01, 0x80, 0x01, 0x80, 0xff, 0xff};
