#define vHit_width 16
#define vHit_height 16
static char vHit_bits[] = {
   0xff, 0xff, 0xff, 0xff, 0x03, 0xc0, 0x1b, 0xd8, 0x1b, 0xd8, 0x3b, 0xdc,
   0x33, 0xcc, 0x33, 0xcc, 0x63, 0xc6, 0x63, 0xc6, 0xc3, 0xc3, 0xc3, 0xc3,
   0x83, 0xc1, 0x03, 0xc0, 0xff, 0xff, 0xff, 0xff};
