#define sharky_width 171
#define sharky_height 68
static char sharky_bits[] = {
   0x00, 0x00, 0x00, 0x00, 0x00, 0x00, 0x00, 0x00, 0x00, 0x00, 0x00, 0x00,
   0x00, 0x08, 0x00, 0x00, 0x00, 0x00, 0x00, 0x00, 0x00, 0x00, 0x00, 0x00,
   0x00, 0x00, 0x00, 0x00, 0x00, 0x00, 0x00, 0x00, 0x00, 0x00, 0x00, 0x0c,
   0x00, 0x00, 0x00, 0x00, 0x00, 0x00, 0x00, 0x00, 0x00, 0x00, 0x00, 0x00,
   0x00, 0x00, 0x00, 0x00, 0x00, 0x00, 0x00, 0x00, 0x00, 0x1e, 0x00, 0x00,
   0x00, 0x00, 0x00, 0x00, 0x40, 0x00, 0x00, 0x00, 0x00, 0x00, 0x00, 0x00,
   0x00, 0x00, 0x00, 0x00, 0x00, 0x00, 0x00, 0x1e, 0x00, 0x00, 0x00, 0x00,
   0x00, 0x00, 0x60, 0x00, 0x00, 0x00, 0x00, 0x00, 0x00, 0x00, 0x00, 0x00,
   0x00, 0x00, 0x00, 0x00, 0x00, 0x3f, 0x00, 0x00, 0x00, 0x00, 0x00, 0x00,
   0x70, 0x00, 0x00, 0x00, 0x00, 0x00, 0x00, 0x00, 0x00, 0x00, 0x00, 0x00,
   0x00, 0x00, 0x80, 0x7f, 0x00, 0x00, 0x00, 0x00, 0x00, 0x00, 0x70, 0x00,
   0x00, 0x00, 0x00, 0x00, 0x00, 0x00, 0x00, 0x00, 0x00, 0x00, 0x00, 0x00,
   0x80, 0x77, 0x00, 0x00, 0x00, 0x00, 0x00, 0x00, 0x78, 0x00, 0x00, 0x00,
   0x00, 0x00, 0x00, 0x00, 0x00, 0x00, 0x00, 0x00, 0x00, 0x00, 0xc0, 0x7f,
   0x00, 0x00, 0x00, 0x00, 0x00, 0x00, 0x7c, 0x00, 0x00, 0x00, 0x00, 0x00,
   0x00, 0x00, 0x00, 0x00, 0x00, 0x00, 0x00, 0x00, 0xc0, 0xdf, 0x00, 0x00,
   0x00, 0x00, 0x00, 0x00, 0x7e, 0x00, 0x00, 0x00, 0x00, 0x00, 0x00, 0x00,
   0x00, 0x00, 0x00, 0x00, 0x00, 0x00, 0xe0, 0xfd, 0x00, 0x00, 0x00, 0x00,
   0x00, 0x80, 0x7f, 0x00, 0x00, 0x00, 0x00, 0x00, 0x00, 0x00, 0x00, 0x00,
   0x00, 0x00, 0x00, 0x00, 0xe0, 0xef, 0x00, 0x00, 0x00, 0x00, 0x00, 0xc0,
   0x7f, 0x00, 0x00, 0x00, 0x00, 0x00, 0x00, 0x00, 0x00, 0x00, 0x00, 0x00,
   0x00, 0x00, 0xd0, 0xff, 0x00, 0x00, 0x00, 0x00, 0x00, 0xe0, 0x3f, 0x00,
   0x00, 0x00, 0x00, 0x00, 0x00, 0x00, 0x00, 0x00, 0x00, 0x00, 0x00, 0x00,
   0x54, 0xfd, 0x03, 0x00, 0x00, 0x00, 0x00, 0xf0, 0x3f, 0x00, 0x00, 0x00,
   0x00, 0x00, 0x00, 0x00, 0x10, 0x00, 0x49, 0x92, 0x54, 0x55, 0x45, 0xeb,
   0x07, 0x00, 0x00, 0x00, 0x00, 0xf8, 0x3f, 0x00, 0x00, 0x00, 0x00, 0x00,
   0x00, 0x10, 0x41, 0x55, 0x84, 0x44, 0x85, 0xa2, 0x50, 0x94, 0x0f, 0x00,
   0x00, 0x06, 0x00, 0xfc, 0x17, 0x00, 0x40, 0x12, 0x12, 0x42, 0x00, 0x01,
   0x04, 0x04, 0x51, 0x75, 0x75, 0xd5, 0xae, 0x55, 0x10, 0x00, 0x80, 0x0f,
   0x00, 0xfe, 0x1f, 0x00, 0x5c, 0x54, 0x45, 0x89, 0x04, 0x10, 0x00, 0x80,
   0x08, 0x55, 0xd5, 0x5e, 0x55, 0xa5, 0x25, 0x15, 0xa0, 0x1f, 0x00, 0xfe,
   0x1f, 0x00, 0xde, 0x55, 0xb5, 0x76, 0x65, 0x25, 0x52, 0x22, 0xd0, 0x56,
   0x7b, 0xd5, 0xff, 0x5d, 0xb5, 0xa2, 0xd7, 0x1f, 0x00, 0xff, 0x0d, 0x00,
   0x17, 0x41, 0x40, 0x00, 0x7a, 0x95, 0x00, 0x91, 0x0a, 0xd9, 0xed, 0x7f,
   0xd5, 0x73, 0x5b, 0x55, 0x54, 0x7f, 0x80, 0xde, 0x07, 0x00, 0xab, 0x54,
   0x14, 0x49, 0xa8, 0x6e, 0x55, 0x0c, 0x64, 0x75, 0xff, 0xff, 0xbf, 0xde,
   0x57, 0xd5, 0x95, 0xfa, 0x43, 0x7f, 0x07, 0x00, 0x17, 0x00, 0x09, 0x00,
   0x74, 0xd1, 0x5b, 0xb5, 0xa9, 0xdd, 0xd5, 0xf7, 0xfd, 0x5f, 0x5e, 0x55,
   0x52, 0x95, 0xdd, 0xfd, 0x05, 0x00, 0x76, 0x55, 0x52, 0x25, 0xf9, 0x15,
   0x76, 0x6f, 0xb6, 0xf7, 0xff, 0xff, 0xff, 0xfb, 0xd7, 0xf7, 0xaa, 0x75,
   0xf7, 0xf7, 0x03, 0x00, 0xd8, 0x15, 0x50, 0x00, 0xf8, 0x60, 0xe8, 0xdd,
   0x5d, 0x7f, 0xff, 0xff, 0xef, 0xff, 0xfd, 0x5e, 0x5b, 0xff, 0xbf, 0xad,
   0x03, 0x00, 0x70, 0x27, 0x05, 0x49, 0xf9, 0x0a, 0x12, 0xb6, 0xf5, 0xfd,
   0x7f, 0xdf, 0xfd, 0xff, 0xff, 0xdf, 0xff, 0xbd, 0x6d, 0xd6, 0x07, 0x00,
   0xe0, 0x5b, 0x75, 0x04, 0x7c, 0x01, 0x40, 0xa8, 0xee, 0xff, 0xff, 0xff,
   0xdf, 0xff, 0xbf, 0xff, 0xeb, 0xd7, 0xd5, 0xbd, 0x05, 0x00, 0x80, 0x7f,
   0x05, 0x51, 0xb1, 0x44, 0x95, 0x46, 0x75, 0xe7, 0xff, 0xff, 0xff, 0xde,
   0xfb, 0xfb, 0x7e, 0x7d, 0x75, 0xef, 0x07, 0x00, 0x00, 0x7e, 0x5b, 0x12,
   0x00, 0x10, 0x00, 0x18, 0x4a, 0x9d, 0xfd, 0xdf, 0xf6, 0xfb, 0xff, 0xdf,
   0xd7, 0xa5, 0x4d, 0xd5, 0x06, 0x00, 0x00, 0xf8, 0xd7, 0xad, 0x0a, 0x02,
   0x44, 0x82, 0x52, 0x77, 0xef, 0xfd, 0xbf, 0xdf, 0xd6, 0xf6, 0x7e, 0x5f,
   0x03, 0xf7, 0x0f, 0x00, 0x00, 0xe0, 0x5f, 0xb6, 0x44, 0x08, 0x11, 0x51,
   0x54, 0x4a, 0xbb, 0xf7, 0xed, 0x7a, 0xdf, 0xdd, 0xd5, 0x75, 0x00, 0x5e,
   0x1d, 0x00, 0x00, 0x00, 0x3f, 0x93, 0x5d, 0x43, 0x44, 0x08, 0x11, 0x69,
   0xd5, 0x5e, 0x7f, 0xdf, 0x7b, 0x77, 0x75, 0x3b, 0x00, 0xf0, 0x2b, 0x00,
   0x00, 0x00, 0xfc, 0x5d, 0x67, 0x11, 0x00, 0x21, 0x44, 0x55, 0x7b, 0x75,
   0xd5, 0x6b, 0xd5, 0x6d, 0x5f, 0x07, 0x00, 0x50, 0x37, 0x00, 0x00, 0x00,
   0xf0, 0xff, 0x9d, 0x84, 0x48, 0x48, 0x89, 0x50, 0xb6, 0xd6, 0xbd, 0x5a,
   0x77, 0xdb, 0xd6, 0x3d, 0x00, 0xc0, 0x76, 0x00, 0x00, 0x00, 0x80, 0xff,
   0xff, 0x57, 0x40, 0x02, 0x45, 0x44, 0xd7, 0x55, 0x55, 0xd5, 0x54, 0x55,
   0x35, 0x33, 0x00, 0x80, 0xdf, 0x00, 0x00, 0x00, 0x00, 0xfc, 0xff, 0x3f,
   0x15, 0x50, 0x50, 0xd1, 0x7f, 0x54, 0xb5, 0x56, 0xdd, 0xf6, 0x1d, 0x5c,
   0x00, 0x00, 0xf5, 0x00, 0x00, 0x00, 0x00, 0xe0, 0x03, 0x40, 0x45, 0x09,
   0x41, 0xe4, 0x5f, 0x95, 0x52, 0x55, 0x25, 0x55, 0x07, 0x74, 0x00, 0x00,
   0xbc, 0x01, 0x00, 0x00, 0x00, 0x80, 0x54, 0x12, 0x32, 0x11, 0x15, 0xf1,
   0xff, 0x52, 0x15, 0x53, 0xa9, 0xdd, 0x1f, 0x10, 0x00, 0x00, 0xe8, 0x02,
   0x00, 0x00, 0x00, 0x40, 0x05, 0xc9, 0x44, 0x49, 0x55, 0xf4, 0xf7, 0x12,
   0x45, 0x11, 0x55, 0xd5, 0x1f, 0x00, 0x00, 0x00, 0xe0, 0x03, 0x00, 0x00,
   0x00, 0xc0, 0xff, 0x56, 0x5b, 0xb5, 0xa4, 0xea, 0x5f, 0x4f, 0x51, 0xcc,
   0xd6, 0x3f, 0x74, 0x00, 0x00, 0x00, 0x00, 0x07, 0x00, 0x00, 0x00, 0x00,
   0xff, 0xff, 0xf5, 0x56, 0x5b, 0xf5, 0xff, 0x50, 0x55, 0xdb, 0xff, 0x1f,
   0x50, 0x00, 0x00, 0x00, 0x00, 0x00, 0x00, 0x00, 0x00, 0x00, 0xf8, 0xff,
   0xbf, 0xff, 0x55, 0xff, 0xff, 0xaf, 0xd6, 0xff, 0xc1, 0x17, 0x00, 0x00,
   0x00, 0x00, 0x00, 0x00, 0x00, 0x00, 0x00, 0x00, 0x80, 0xff, 0xff, 0xef,
   0xfe, 0xf7, 0xff, 0xdf, 0xff, 0x05, 0xe0, 0x0b, 0x00, 0x00, 0x00, 0x00,
   0x00, 0x00, 0x00, 0x00, 0x00, 0x00, 0x00, 0xd0, 0xff, 0xff, 0xdf, 0xff,
   0xff, 0xff, 0x1e, 0x00, 0x40, 0x05, 0x00, 0x00, 0x00, 0x00, 0x00, 0x00,
   0x00, 0x00, 0x00, 0x00, 0x00, 0x00, 0xfc, 0xff, 0xff, 0xff, 0xff, 0xaf,
   0x1f, 0x00, 0x40, 0x01, 0x00, 0x00, 0x00, 0x00, 0x00, 0x00, 0x00, 0x00,
   0x00, 0x00, 0x00, 0x00, 0x00, 0xfc, 0xff, 0xff, 0x02, 0x00, 0x3c, 0x00,
   0x40, 0x01, 0x00, 0x00, 0x00, 0x00, 0x00, 0x00, 0x00, 0x00, 0x00, 0x00,
   0x00, 0x00, 0x00, 0xfc, 0xff, 0x1f, 0x00, 0x00, 0xe0, 0x00, 0x80, 0x00,
   0x00, 0x00, 0x00, 0x00, 0x00, 0x00, 0x00, 0x00, 0x00, 0x00, 0x00, 0x00,
   0x00, 0xfe, 0xff, 0x07, 0x00, 0x00, 0xe0, 0x03, 0x00, 0x00, 0x00, 0x00,
   0x00, 0x00, 0x00, 0x00, 0x00, 0x00, 0x00, 0x00, 0x00, 0x00, 0x00, 0xfe,
   0xff, 0x03, 0x00, 0x00, 0x00, 0x0f, 0x00, 0x00, 0x00, 0x00, 0x00, 0x00,
   0x00, 0x00, 0x00, 0x00, 0x00, 0x00, 0x00, 0x00, 0x00, 0xfe, 0xff, 0x03,
   0x00, 0x00, 0x00, 0x7c, 0x00, 0x00, 0x00, 0x00, 0x00, 0x00, 0x00, 0x00,
   0x00, 0x00, 0x00, 0x00, 0x00, 0x00, 0x00, 0xfe, 0xff, 0x01, 0x00, 0x00,
   0x00, 0xe0, 0x00, 0x00, 0x00, 0x00, 0x00, 0x00, 0x00, 0x00, 0x00, 0x00,
   0x00, 0x00, 0x00, 0x00, 0x00, 0xfc, 0xff, 0x00, 0x00, 0x00, 0x00, 0xc0,
   0x03, 0x00, 0x00, 0x00, 0x00, 0x00, 0x00, 0x00, 0x00, 0x00, 0x00, 0x00,
   0x00, 0x00, 0x00, 0xfe, 0xff, 0x00, 0x00, 0x00, 0x00, 0x00, 0x1f, 0x00,
   0x00, 0x00, 0x00, 0x00, 0x00, 0x00, 0x00, 0x00, 0x00, 0x00, 0x00, 0x00,
   0x00, 0xfe, 0x7f, 0x00, 0x00, 0x00, 0x00, 0x00, 0x7c, 0x00, 0x00, 0x00,
   0x00, 0x00, 0x00, 0x00, 0x00, 0x00, 0x00, 0x00, 0x00, 0x00, 0x00, 0xfe,
   0x7f, 0x00, 0x00, 0x00, 0x00, 0x00, 0xf0, 0x00, 0x00, 0x00, 0x00, 0x00,
   0x00, 0x00, 0x00, 0x00, 0x00, 0x00, 0x00, 0x00, 0x00, 0xfe, 0x7f, 0x00,
   0x00, 0x00, 0x00, 0x00, 0xc0, 0x03, 0x00, 0x00, 0x00, 0x00, 0x00, 0x00,
   0x00, 0x00, 0x00, 0x00, 0x00, 0x00, 0x00, 0xfe, 0x3f, 0x00, 0x00, 0x00,
   0x00, 0x00, 0x00, 0x0f, 0x00, 0x00, 0x00, 0x00, 0x00, 0x00, 0x00, 0x00,
   0x00, 0x00, 0x00, 0x00, 0x00, 0xfe, 0x1f, 0x00, 0x00, 0x00, 0x00, 0x00,
   0x00, 0x3c, 0x00, 0x00, 0x00, 0x00, 0x00, 0x00, 0x00, 0x00, 0x00, 0x00,
   0x00, 0x00, 0x00, 0xfe, 0x1f, 0x00, 0x00, 0x00, 0x00, 0x00, 0x00, 0x70,
   0x00, 0x00, 0x00, 0x00, 0x00, 0x00, 0x00, 0x00, 0x00, 0x00, 0x00, 0x00,
   0x00, 0xfe, 0x1f, 0x00, 0x00, 0x00, 0x00, 0x00, 0x00, 0xc0, 0x01, 0x00,
   0x00, 0x00, 0x00, 0x00, 0x00, 0x00, 0x00, 0x00, 0x00, 0x00, 0x00, 0xec,
   0x0f, 0x00, 0x00, 0x00, 0x00, 0x00, 0x00, 0x80, 0x03, 0x00, 0x00, 0x00,
   0x00, 0x00, 0x00, 0x00, 0x00, 0x00, 0x00, 0x00, 0x00, 0xfe, 0x1f, 0x00,
   0x00, 0x00, 0x00, 0x00, 0x00, 0x00, 0x06, 0x00, 0x00, 0x00, 0x00, 0x00,
   0x00, 0x00, 0x00, 0x00, 0x00, 0x00, 0x00, 0xd6, 0x0f, 0x00, 0x00, 0x00,
   0x00, 0x00, 0x00, 0x00, 0x00, 0x00, 0x00, 0x00, 0x00, 0x00, 0x00, 0x00,
   0x00, 0x00, 0x00, 0x00, 0x00, 0xfc, 0x07, 0x00, 0x00, 0x00, 0x00, 0x00,
   0x00, 0x00, 0x00, 0x00, 0x00, 0x00, 0x00, 0x00, 0x00, 0x00, 0x00, 0x00,
   0x00, 0x00, 0x00, 0xda, 0x0f, 0x00, 0x00, 0x00, 0x00, 0x00, 0x00, 0x00,
   0x00, 0x00, 0x00, 0x00, 0x00, 0x00, 0x00, 0x00, 0x00, 0x00, 0x00, 0x00,
   0x00, 0xf4, 0x07, 0x00, 0x00, 0x00, 0x00, 0x00, 0x00, 0x00, 0x00, 0x00,
   0x00, 0x00, 0x00, 0x00, 0x00, 0x00, 0x00, 0x00, 0x00, 0x00, 0x00, 0xfc,
   0x07, 0x00, 0x00, 0x00, 0x00, 0x00, 0x00, 0x00, 0x00, 0x00, 0x00, 0x00,
   0x00, 0x00, 0x00, 0x00, 0x00, 0x00, 0x00, 0x00, 0x00, 0xd8, 0x03, 0x00,
   0x00, 0x00, 0x00, 0x00, 0x00, 0x00, 0x00, 0x00, 0x00, 0x00, 0x00, 0x00,
   0x00, 0x00, 0x00, 0x00, 0x00, 0x00, 0x00, 0xe0, 0x01, 0x00, 0x00, 0x00,
   0x00, 0x00, 0x00, 0x00, 0x00, 0x00, 0x00, 0x00, 0x00, 0x00, 0x00, 0x00,
   0x00, 0x00, 0x00, 0x00, 0x00, 0x00, 0x00, 0x00, 0x00, 0x00, 0x00, 0x00,
   0x00, 0x00, 0x00, 0x00, 0x00, 0x00, 0x00, 0x00};

