<?xml version="1.0" encoding="UTF-8" standalone="no"?>
<svg xmlns:dc="http://purl.org/dc/elements/1.1/" xmlns:cc="http://creativecommons.org/ns#" xmlns:rdf="http://www.w3.org/1999/02/22-rdf-syntax-ns#" xmlns:svg="http://www.w3.org/2000/svg" xmlns="http://www.w3.org/2000/svg" viewBox="0 0 467.8 356.1" height="356.1" width="467.8" version="1.1" id="svg4296">
  <metadata id="metadata4302">
    <rdf:RDF>
      <cc:Work rdf:about="">
        <dc:format>image/svg+xml</dc:format>
        <dc:type rdf:resource="http://purl.org/dc/dcmitype/StillImage" />
        <dc:title></dc:title>
      </cc:Work>
    </rdf:RDF>
  </metadata>
  <defs id="defs4300" />
  <path id="path5004" d="m 0.5,122.3 c 0,128 104.7,232.7 232.3,233.3 l 0,-80.9 C 148.9,274.2 81.4,206.7 81.4,122.3 l -80.9,0 z" style="color:#000000;font-style:normal;font-variant:normal;font-weight:normal;font-stretch:normal;font-size:medium;line-height:normal;font-family:sans-serif;text-indent:0;text-align:start;text-decoration:none;text-decoration-line:none;text-decoration-style:solid;text-decoration-color:#000000;letter-spacing:normal;word-spacing:normal;text-transform:none;direction:ltr;block-progression:tb;writing-mode:lr-tb;baseline-shift:baseline;text-anchor:start;white-space:normal;clip-rule:nonzero;display:inline;overflow:visible;visibility:visible;opacity:1;isolation:auto;mix-blend-mode:normal;color-interpolation:sRGB;color-interpolation-filters:linearRGB;solid-color:#000000;solid-opacity:1;fill:#c7d8e0;fill-opacity:1;fill-rule:nonzero;stroke:#9ebbc9;stroke-width:1;stroke-linecap:round;stroke-linejoin:round;stroke-miterlimit:4;stroke-dasharray:none;stroke-dashoffset:0;stroke-opacity:1;color-rendering:auto;image-rendering:auto;shape-rendering:auto;text-rendering:auto;enable-background:accumulate" />
  <path id="path4874" d="m 0.5,122.3 c 0,128.3 105.2,233.3 233.3,233.3 128.4,0 233.5,-105 233.5,-233.3 l -80.8,0 C 386.3,207 318.5,274.7 233.8,274.7 149.4,274.7 81.4,207 81.4,122.3 l -80.9,0 z" style="color:#000000;font-style:normal;font-variant:normal;font-weight:normal;font-stretch:normal;font-size:medium;line-height:normal;font-family:sans-serif;text-indent:0;text-align:start;text-decoration:none;text-decoration-line:none;text-decoration-style:solid;text-decoration-color:#000000;letter-spacing:normal;word-spacing:normal;text-transform:none;direction:ltr;block-progression:tb;writing-mode:lr-tb;baseline-shift:baseline;text-anchor:start;white-space:normal;clip-rule:nonzero;display:inline;overflow:visible;visibility:visible;opacity:0.713;isolation:auto;mix-blend-mode:normal;color-interpolation:sRGB;color-interpolation-filters:linearRGB;solid-color:#000000;solid-opacity:1;fill:#c7d8e0;fill-opacity:1;fill-rule:nonzero;stroke:#9ebbc9;stroke-width:1;stroke-linecap:round;stroke-linejoin:round;stroke-miterlimit:4;stroke-dasharray:none;stroke-dashoffset:0;stroke-opacity:1;color-rendering:auto;image-rendering:auto;shape-rendering:auto;text-rendering:auto;enable-background:accumulate" />
  <path id="rect4956" d="m 0.8,138.9 0,1.1 14,0 0,-1.1 -14,0 z m 26.7,0 0,1.1 15.9,0 0,-1.1 -15.9,0 z m 28.6,0 0,1.1 15.7,0 0,-1.1 -15.7,0 z" style="opacity:0.707;fill:#76a1b4;fill-opacity:1;stroke:none;stroke-width:60;stroke-linecap:round;stroke-linejoin:round;stroke-miterlimit:4;stroke-dasharray:none;stroke-opacity:1" />
  <path style="opacity:0.707;fill:#76a1b4;fill-opacity:1;stroke:none;stroke-width:60;stroke-linecap:round;stroke-linejoin:round;stroke-miterlimit:4;stroke-dasharray:none;stroke-opacity:1" d="m 6.9,175.1 0.1,1.1 13.9,-2.3 -0.2,-1 -13.8,2.2 z m 26.3,-4.3 0.2,1.1 15.7,-2.5 -0.2,-1.1 -15.7,2.5 z m 28.3,-4.6 0.1,1.1 15.5,-2.5 -0.1,-1.1 -15.5,2.5 z" id="path4962" />
  <path id="path4964" d="m 18.1,210 0.3,1.1 13.5,-4.4 -0.4,-1 -13.4,4.3 z m 25.4,-8.2 0.4,1 15.2,-4.8 -0.4,-1 -15.2,4.8 z m 27.3,-8.8 0.3,1.1 15,-4.8 -0.3,-1.1 -15,4.8 z" style="opacity:0.707;fill:#76a1b4;fill-opacity:1;stroke:none;stroke-width:60;stroke-linecap:round;stroke-linejoin:round;stroke-miterlimit:4;stroke-dasharray:none;stroke-opacity:1" />
  <path style="opacity:0.707;fill:#76a1b4;fill-opacity:1;stroke:none;stroke-width:60;stroke-linecap:round;stroke-linejoin:round;stroke-miterlimit:4;stroke-dasharray:none;stroke-opacity:1" d="m 35.2,242.5 0.4,1 12.7,-6.3 -0.5,-1 -12.6,6.3 z m 23.8,-11.9 0.6,0.9 14.3,-7 -0.5,-0.9 -14.4,7 z m 25.7,-12.8 0.5,1 14.1,-6.9 -0.5,-1.1 -14.1,7 z" id="path4966" />
  <path id="path4968" d="m 56.9,272.9 0.6,0.9 11.4,-8.5 -0.7,-0.8 -11.3,8.4 z m 21.3,-15.9 0.8,0.7 12.8,-9.4 -0.6,-0.8 -13,9.5 z m 23.1,-17.2 0.7,0.9 12.6,-9.3 -0.7,-1 -12.6,9.4 z" style="opacity:0.707;fill:#76a1b4;fill-opacity:1;stroke:none;stroke-width:60;stroke-linecap:round;stroke-linejoin:round;stroke-miterlimit:4;stroke-dasharray:none;stroke-opacity:1" />
  <path style="opacity:0.707;fill:#76a1b4;fill-opacity:1;stroke:none;stroke-width:60;stroke-linecap:round;stroke-linejoin:round;stroke-miterlimit:4;stroke-dasharray:none;stroke-opacity:1" d="m 84.6,299.6 0.7,0.8 9.7,-10.1 -0.8,-0.8 -9.6,10.1 z m 18.2,-19.2 0.8,0.6 11.1,-11.4 -0.6,-0.7 -11.3,11.5 z m 19.9,-20.9 0.8,0.8 10.9,-11.3 -0.9,-0.9 -10.8,11.4 z" id="path4970" />
  <path id="path4972" d="m 116.6,322.6 0.8,0.6 7.8,-11.6 -1,-0.7 -7.6,11.7 z m 14.5,-22.1 0.9,0.5 9,-13.2 -0.8,-0.6 -9.1,13.3 z m 15.9,-24.1 1,0.7 8.7,-13.1 -1.1,-0.7 -8.6,13.1 z" style="opacity:0.707;fill:#76a1b4;fill-opacity:1;stroke:none;stroke-width:60;stroke-linecap:round;stroke-linejoin:round;stroke-miterlimit:4;stroke-dasharray:none;stroke-opacity:1" />
  <path style="opacity:0.707;fill:#76a1b4;fill-opacity:1;stroke:none;stroke-width:60;stroke-linecap:round;stroke-linejoin:round;stroke-miterlimit:4;stroke-dasharray:none;stroke-opacity:1" d="m 153,340.1 0.9,0.5 5.3,-13 -1.1,-0.4 -5.1,12.9 z m 9.8,-24.5 0.9,0.3 6.2,-14.7 -0.9,-0.5 -6.2,14.9 z m 10.8,-26.8 1.1,0.6 6,-14.6 -1.3,-0.5 -5.8,14.5 z" id="path4974" />
  <path id="path4976" d="m 192.7,349.9 1,0.3 2.8,-13.7 -1.2,-0.3 -2.6,13.7 z m 5.2,-25.9 0.9,0.1 3.5,-15.6 -1.1,-0.2 -3.3,15.7 z m 5.8,-28.3 1.1,0.4 3.3,-15.4 -1.3,-0.3 -3.1,15.3 z" style="opacity:0.707;fill:#76a1b4;fill-opacity:1;stroke:none;stroke-width:60;stroke-linecap:round;stroke-linejoin:round;stroke-miterlimit:4;stroke-dasharray:none;stroke-opacity:1" />
  <path style="opacity:0.707;fill:#76a1b4;fill-opacity:1;stroke:none;stroke-width:60;stroke-linecap:round;stroke-linejoin:round;stroke-miterlimit:4;stroke-dasharray:none;stroke-opacity:1" d="m 232.9,354 1,0 0,-14 -1,0 0,14 z m 0,-26.7 1,0 0,-15.9 -1,0 0,15.9 z m 0,-28.6 1,0 0,-15.7 -1,0 0,15.7 z" id="path4978" />
  <path style="opacity:0.707;fill:#76a1b4;fill-opacity:1;stroke:none;stroke-width:60;stroke-linecap:round;stroke-linejoin:round;stroke-miterlimit:4;stroke-dasharray:none;stroke-opacity:1" d="m 463.3,141.3 0,1.1 -14.2,0 0,-1.1 14.2,0 z m -26.9,0 0,1.1 -15.9,0 0,-1.1 15.9,0 z m -28.6,0 0,1.1 -15.7,0 0,-1.1 15.7,0 z" id="path4980" />
  <path id="path4982" d="m 459.1,177.1 -0.1,1.1 -13.9,-2.3 0.2,-1 13.8,2.2 z m -26.3,-4.3 -0.2,1.1 -15.7,-2.5 0.2,-1.1 15.7,2.5 z m -28.3,-4.6 -0.1,1.1 -15.5,-2.5 0.1,-1.1 15.5,2.5 z" style="opacity:0.707;fill:#76a1b4;fill-opacity:1;stroke:none;stroke-width:60;stroke-linecap:round;stroke-linejoin:round;stroke-miterlimit:4;stroke-dasharray:none;stroke-opacity:1" />
  <path style="opacity:0.707;fill:#76a1b4;fill-opacity:1;stroke:none;stroke-width:60;stroke-linecap:round;stroke-linejoin:round;stroke-miterlimit:4;stroke-dasharray:none;stroke-opacity:1" d="m 450.2,211.7 -0.3,1.1 -13.5,-4.4 0.4,-1 13.4,4.3 z m -25.4,-8.2 -0.4,1 -15.2,-4.8 0.4,-1 15.2,4.8 z m -27.3,-8.8 -0.3,1.1 -15,-4.8 0.3,-1.1 15,4.8 z" id="path4984" />
  <path id="path4986" d="m 431.6,242.8 -0.4,1 -12.7,-6.3 0.5,-1 12.6,6.3 z m -23.8,-11.9 -0.6,0.9 -14.3,-7 0.5,-0.9 14.4,7 z m -25.7,-12.8 -0.5,1 -14.1,-6.9 0.5,-1.1 14.1,7 z" style="opacity:0.707;fill:#76a1b4;fill-opacity:1;stroke:none;stroke-width:60;stroke-linecap:round;stroke-linejoin:round;stroke-miterlimit:4;stroke-dasharray:none;stroke-opacity:1" />
  <path style="opacity:0.707;fill:#76a1b4;fill-opacity:1;stroke:none;stroke-width:60;stroke-linecap:round;stroke-linejoin:round;stroke-miterlimit:4;stroke-dasharray:none;stroke-opacity:1" d="m 411.1,272.6 -0.6,0.9 -11.4,-8.5 0.7,-0.8 11.3,8.4 z m -21.3,-15.9 -0.8,0.7 -12.8,-9.4 0.6,-0.8 13,9.5 z m -23.1,-17.2 -0.7,0.9 -12.6,-9.3 0.7,-1 12.6,9.4 z" id="path4988" />
  <path id="path4990" d="m 384,300.4 -0.7,0.8 -9.7,-10.1 0.8,-0.8 9.6,10.1 z m -18.2,-19.2 -0.8,0.6 -11.1,-11.4 0.6,-0.7 11.3,11.5 z m -19.9,-20.9 -0.8,0.8 -10.9,-11.3 0.9,-0.9 10.8,11.4 z" style="opacity:0.707;fill:#76a1b4;fill-opacity:1;stroke:none;stroke-width:60;stroke-linecap:round;stroke-linejoin:round;stroke-miterlimit:4;stroke-dasharray:none;stroke-opacity:1" />
  <path style="opacity:0.707;fill:#76a1b4;fill-opacity:1;stroke:none;stroke-width:60;stroke-linecap:round;stroke-linejoin:round;stroke-miterlimit:4;stroke-dasharray:none;stroke-opacity:1" d="m 352,322.3 -0.8,0.6 -7.8,-11.6 1,-0.7 7.6,11.7 z m -14.5,-22.1 -0.9,0.5 -9,-13.2 0.8,-0.6 9.1,13.3 z m -15.9,-24.1 -1,0.7 -8.7,-13.1 1.1,-0.7 8.6,13.1 z" id="path4992" />
  <path id="path4994" d="m 316.1,338.7 -0.9,0.5 -5.3,-13 1.1,-0.4 5.1,12.9 z m -9.8,-24.5 -0.9,0.3 -6.2,-14.7 0.9,-0.5 6.2,14.9 z m -10.8,-26.8 -1.1,0.6 -6,-14.6 1.3,-0.5 5.8,14.5 z" style="opacity:0.707;fill:#76a1b4;fill-opacity:1;stroke:none;stroke-width:60;stroke-linecap:round;stroke-linejoin:round;stroke-miterlimit:4;stroke-dasharray:none;stroke-opacity:1" />
  <path style="opacity:0.707;fill:#76a1b4;fill-opacity:1;stroke:none;stroke-width:60;stroke-linecap:round;stroke-linejoin:round;stroke-miterlimit:4;stroke-dasharray:none;stroke-opacity:1" d="m 277.5,350.7 -1,0.3 -2.8,-13.7 1.2,-0.3 2.6,13.7 z m -5.2,-25.9 -0.9,0.1 -3.5,-15.6 1.1,-0.2 3.3,15.7 z m -5.8,-28.3 -1.1,0.4 -3.3,-15.4 1.3,-0.3 3.1,15.3 z" id="path4996" />
  <path id="path4846" d="M 208.8,35.27 26,354.1 c 0,0 41.9,-57 51.4,-58 9.5,-1 13.3,1 13.3,1 0,0 64.7,-134.3 82.8,-140 18.2,-5.7 22,-5.7 22,-5.7 L 259.2,42.89 Z" style="fill:#a2c8d7;fill-opacity:1;fill-rule:evenodd;stroke:none;stroke-width:1px;stroke-linecap:butt;stroke-linejoin:miter;stroke-opacity:1" />
  <path style="fill:#c3dce5;fill-opacity:1;fill-rule:evenodd;stroke:none;stroke-width:1px;stroke-linecap:butt;stroke-linejoin:miter;stroke-opacity:1" d="M 258.2,35.27 441,354.1 c 0,0 -42,-57 -51.3,-58 -9.5,-1 -13.4,1 -13.4,1 0,0 -64.9,-134.3 -82.8,-140 -18.1,-5.7 -21.9,-5.7 -21.9,-5.7 L 207.9,42.89 Z" id="path4848" />
  <circle r="35.22" cy="35.7" cx="232.5" id="path4852" style="opacity:1;fill:#a2c8d7;fill-opacity:1;stroke:none;stroke-width:5.581;stroke-linecap:round;stroke-linejoin:round;stroke-miterlimit:4;stroke-dasharray:none;stroke-opacity:1" />
  <circle r="29.04" cy="35.7" cx="232.5" id="path4850" style="opacity:1;fill:#cadae2;fill-opacity:1;stroke:#5d90a6;stroke-width:13.3171;stroke-linecap:round;stroke-linejoin:round;stroke-miterlimit:4;stroke-dasharray:none;stroke-opacity:1" />
  <circle style="opacity:1;fill:#88aebe;fill-opacity:1;stroke:none;stroke-width:5.581;stroke-linecap:round;stroke-linejoin:round;stroke-miterlimit:4;stroke-dasharray:none;stroke-opacity:1" id="circle4863" cx="232.5" cy="35.7" r="35.22" />
  <path id="circle4867" d="M 232.5,0.4825 A 35.22,35.22 0 0 0 197.1,35.7 35.22,35.22 0 0 0 232.5,70.85 l 0,-70.3675 z" style="opacity:1;fill:#78a3b5;fill-opacity:1;stroke:none;stroke-width:5.581;stroke-linecap:round;stroke-linejoin:round;stroke-miterlimit:4;stroke-dasharray:none;stroke-opacity:1" />
  <path id="circle4858" d="M 232.5,6.663 A 29.04,29.04 0 0 0 203.3,35.7 29.04,29.04 0 0 0 232.5,64.75 l 0,-58.087 z" style="opacity:1;fill:#5d90a6;fill-opacity:1;stroke:none;stroke-width:5.581;stroke-linecap:round;stroke-linejoin:round;stroke-miterlimit:4;stroke-dasharray:none;stroke-opacity:1" />
  <path style="opacity:1;fill:#76a1b4;fill-opacity:1;stroke:none;stroke-width:5.581;stroke-linecap:round;stroke-linejoin:round;stroke-miterlimit:4;stroke-dasharray:none;stroke-opacity:1" d="M 232.2,6.663 A 29.04,29.04 0 0 1 261.3,35.7 29.04,29.04 0 0 1 232.2,64.75 l 0,-58.087 z" id="path4872" />
</svg>
